<svg xmlns="http://www.w3.org/2000/svg" viewBox="0 0 722.8 722.8" width="722.8" height="722.8"><style>.st0{fill:#f5f4f4}.st1{fill:none;stroke:#009faf;stroke-width:62;stroke-linecap:round;stroke-miterlimit:10}.st2{fill:#009faf}.st3{font-family:&apos;Roboto-Bold&apos;}.st4{font-size:108.7105px}.st5{font-size:33.4736px}</style><g id="graph"><path id="main_x5F_circle" d="M361.4 95.1c-147.1 0-266.3 119.2-266.3 266.3s119.2 266.3 266.3 266.3 266.3-119.2 266.3-266.3S508.5 95.1 361.4 95.1zm0 470.3c-112.7 0-204-91.3-204-204s91.3-204 204-204 204 91.3 204 204-91.3 204-204 204z" class="st0"/><path id="main_x5F_innercircle" d="M361.4 543.2c-100.4 0-181.8-81.4-181.8-181.8S261 179.6 361.4 179.6 543.2 261 543.2 361.4s-81.4 181.8-181.8 181.8z" class="st0"/><path id="animated_x5F_stroke" d="M359.4 599.8c131.1 0 237.4-106.3 237.4-237.4S490.5 125 359.4 125" class="st1"/></g><g id="text"><text id="_x35_0_x5F_completed" class="st2 st3 st4" transform="translate(259 387.997)">50%</text><text id="text_x5F_completed" class="st2 st3 st5" transform="translate(265 430.968)">COMPLETED</text></g></svg>