<svg xmlns="http://www.w3.org/2000/svg" width="963.84" height="963.84" viewBox="0 0 722.8 722.8"><g style="isolation:isolate"><path fill="#f5f4f4" d="M361.4 95.08c-147.09 0-266.32 119.23-266.32 266.32S214.31 627.72 361.4 627.72 627.72 508.49 627.72 361.4 508.49 95.08 361.4 95.08zm0 470.3c-112.65 0-204-91.33-204-204s91.33-204 204-204 204 91.33 204 204-91.35 204-204 204z"/><path fill="#f5f4f4" d="M361.4 543.22A181.82 181.82 0 1 1 543.22 361.4 181.82 181.82 0 0 1 361.4 543.22z"/><path fill="none" stroke="#009faf" stroke-linecap="round" stroke-miterlimit="10" stroke-width="62" d="M359.4 599.8c131.11 0 237.4-106.29 237.4-237.4S490.51 125 359.4 125"/><path fill="#009faf" d="M266.54 350l4.46-39.29h43.31v12.79h-30.73l-1.91 16.62a24.26 24.26 0 0 1 11.62-2.92q11 0 17.31 6.85t6.26 19.16a27.94 27.94 0 0 1-3.16 13.4 22.24 22.24 0 0 1-9.05 9.18 28.21 28.21 0 0 1-13.91 3.27 30 30 0 0 1-13-2.84 23.09 23.09 0 0 1-9.48-8 21.73 21.73 0 0 1-3.69-11.73h15.18a11.35 11.35 0 0 0 3.38 7.51 10.65 10.65 0 0 0 7.56 2.68 9.42 9.42 0 0 0 8-3.74q2.82-3.75 2.82-10.59 0-6.58-3.24-10.09t-9.18-3.5a13.3 13.3 0 0 0-8.87 2.87l-1.47 1.37zm112.1 6q0 16-6.63 24.53t-19.43 8.49q-12.63 0-19.32-8.34t-6.85-23.88v-14.19q0-16.19 6.72-24.57t19.35-8.39q12.63 0 19.32 8.31t6.84 23.86zm-15.34-15.6q0-9.61-2.62-14a8.88 8.88 0 0 0-8.2-4.38q-5.42 0-8 4.17t-2.74 13V358q0 9.46 2.58 14c1.71 3.07 4.47 4.6 8.25 4.6s6.46-1.47 8.12-4.41 2.53-7.44 2.6-13.49zm25.48-14.83A15.26 15.26 0 0 1 393.4 314q4.62-4.44 12.1-4.43t12.21 4.43q4.62 4.36 4.62 11.86v3.82a15.08 15.08 0 0 1-4.62 11.52q-4.62 4.35-12.1 4.35t-12.18-4.38q-4.65-4.38-4.65-11.81zm10.2 4.16a7.23 7.23 0 0 0 1.83 5.15 6.28 6.28 0 0 0 4.8 1.95 6 6 0 0 0 4.72-2 7.67 7.67 0 0 0 1.76-5.28v-4a7.48 7.48 0 0 0-1.76-5.17 6.78 6.78 0 0 0-9.55 0 7.69 7.69 0 0 0-1.8 5.42zm9.66 52.48l-7.49-4 37.74-60.41 7.49 4zm17.09-13.16a15.11 15.11 0 0 1 4.67-11.55q4.67-4.38 12.1-4.38t12.18 4.33q4.65 4.32 4.65 11.92v3.82a15.18 15.18 0 0 1-4.57 11.49q-4.56 4.38-12.15 4.38t-12.26-4.41q-4.62-4.39-4.62-11.68zm10.19 4.2a7.18 7.18 0 0 0 1.91 5 6.22 6.22 0 0 0 4.78 2.08q6.48 0 6.47-7.2v-4.06a7.28 7.28 0 0 0-1.8-5.15 6.83 6.83 0 0 0-9.56 0 7.52 7.52 0 0 0-1.8 5.31zM285.81 423a8.43 8.43 0 0 1-2.84 6 10 10 0 0 1-6.74 2.2 8.94 8.94 0 0 1-7.2-3.08q-2.62-3.07-2.62-8.45v-1.37a14.39 14.39 0 0 1 1.2-6.05 9.08 9.08 0 0 1 3.46-4 10.79 10.79 0 0 1 11.86.81 9 9 0 0 1 2.91 6.19h-4.9a5 5 0 0 0-1.29-3.34 4.74 4.74 0 0 0-3.36-1 4.19 4.19 0 0 0-3.67 1.76 9.93 9.93 0 0 0-1.25 5.45v1.8q0 3.86 1.17 5.64a4.09 4.09 0 0 0 3.69 1.78 4.86 4.86 0 0 0 3.39-1 4.66 4.66 0 0 0 1.28-3.34zm22.76-3.39a14.35 14.35 0 0 1-1.24 6.16 9.36 9.36 0 0 1-3.55 4.09 10.55 10.55 0 0 1-10.59 0 9.49 9.49 0 0 1-3.59-4.06 13.93 13.93 0 0 1-1.29-6.07v-1.18a14.33 14.33 0 0 1 1.26-6.18 9.49 9.49 0 0 1 3.58-4.11 10.5 10.5 0 0 1 10.58 0 9.49 9.49 0 0 1 3.58 4.11 14.28 14.28 0 0 1 1.26 6.17zm-5-1.08a10 10 0 0 0-1.34-5.69 4.75 4.75 0 0 0-7.64 0 9.91 9.91 0 0 0-1.35 5.63v1.16a10.07 10.07 0 0 0 1.34 5.65 4.7 4.7 0 0 0 7.65.08 10.2 10.2 0 0 0 1.34-5.65zm14.97-11.36l6.12 17.26 6.08-17.26h6.44V431h-4.92v-6.51l.49-11.23-6.43 17.74H323l-6.41-17.72.49 11.21V431h-4.9v-23.8zm27.82 15.41V431h-4.9v-23.8h9.28a10.82 10.82 0 0 1 4.72 1 7.21 7.21 0 0 1 3.13 2.79 7.75 7.75 0 0 1 1.09 4.11 6.8 6.8 0 0 1-2.39 5.51 10 10 0 0 1-6.63 2zm0-4h4.38a4.31 4.31 0 0 0 3-.91 3.35 3.35 0 0 0 1-2.62 3.93 3.93 0 0 0-1-2.83 3.83 3.83 0 0 0-2.84-1.11h-4.5zM368 427h10.42v4h-15.37v-23.8H368zm27.49-6.38h-9.41V427h11.05v4h-15.95v-23.8h15.92v4h-11v5.67h9.41zm22.76-9.48H411V431h-4.91v-19.86h-7.19v-4h19.39zm17.11 9.48h-9.42V427H437v4h-16v-23.8h16v4h-11v5.67h9.42zm4.51 10.38v-23.8h7.32a11.17 11.17 0 0 1 5.62 1.41 9.9 9.9 0 0 1 3.86 4 12.39 12.39 0 0 1 1.39 5.93v1.09a12.47 12.47 0 0 1-1.36 5.91 9.83 9.83 0 0 1-3.85 4 11.2 11.2 0 0 1-5.61 1.44zm4.9-19.83V427h2.37a5.33 5.33 0 0 0 4.4-1.88 8.51 8.51 0 0 0 1.55-5.38v-1.26a8.65 8.65 0 0 0-1.5-5.5 5.33 5.33 0 0 0-4.4-1.87z"/></g></svg>