<svg xmlns="http://www.w3.org/2000/svg" width="722.8" height="722.8" viewBox="0 0 722.8 722.8"><title>break</title><g id="break"><path d="M339,611.6c-139.6,0-252.7-113.2-252.7-252.7S199.4,106.1,339,106.1,592.4,212.3,591.7,366.5" fill="none" stroke="#4dd0e1" stroke-miterlimit="10" stroke-width="49"/><rect x="320.1" y="105.6" width="36.8" height="76.28" rx="12" ry="12" fill="#4dd0e1"/><rect x="321.4" y="558.7" width="36.8" height="76.28" rx="12" ry="12" fill="#4dd0e1"/><rect x="92.9" y="334.3" width="36.8" height="76.28" rx="12" ry="12" transform="translate(482.3 256.2) rotate(89.3)" fill="#4dd0e1"/><rect x="558.9" y="318.2" width="36.8" height="76.28" rx="12" ry="12" transform="translate(926.1 -225.5) rotate(89.3)" fill="#4dd0e1"/><rect x="240.4" y="281" width="197.3" height="42.08" rx="21" ry="21" transform="translate(641 -37) rotate(90)" fill="#4dd0e1"/><rect x="196.3" y="385.8" width="166.6" height="42.08" rx="21" ry="21" transform="translate(-141.4 149.1) rotate(-24)" fill="#4dd0e1"/><polygon points="365.7 405.7 563.9 406.6 524.6 643.4 409 642.3 365.7 405.7" fill="#009faf"/><path d="M545.9,429.2c-3.5.4,95.5-24.2,70.1,76.2-5.5,21.7-20.6,44.5-95.2,69.9" fill="none" stroke="#009faf" stroke-miterlimit="10" stroke-width="40"/><path d="M432.2,285.8c-5.6,27.6-16.3,28,.9,46.7,21.5,23.4.9,44.5.9,44.5" fill="none" stroke="#009faf" stroke-linecap="round" stroke-linejoin="bevel" stroke-width="17.39"/><path d="M487.8,299.6c-5.5,27.6-16.3,28,1,46.7,21.5,23.4.8,44.5.8,44.5" fill="none" stroke="#009faf" stroke-linecap="round" stroke-linejoin="bevel" stroke-width="17.39"/></g></svg>