<svg xmlns="http://www.w3.org/2000/svg" width="722.8" height="722.8" viewBox="0 0 722.8 722.8"><path fill="none" stroke="#4dd0e1" stroke-miterlimit="10" stroke-width="49" d="M339 611.6c-139.6 0-252.7-113.2-252.7-252.7S199.4 106.1 339 106.1s253.4 106.2 252.7 260.4"/><rect width="36.8" height="76.28" x="320.1" y="105.6" fill="#4dd0e1" rx="12" ry="12"/><rect width="36.8" height="76.28" x="321.4" y="558.7" fill="#4dd0e1" rx="12" ry="12"/><rect width="36.8" height="76.28" x="92.9" y="334.3" fill="#4dd0e1" rx="12" ry="12" transform="rotate(89.3 111.475 372.214)"/><rect width="36.8" height="76.28" x="558.9" y="318.2" fill="#4dd0e1" rx="12" ry="12" transform="rotate(89.3 577.186 355.992)"/><rect width="197.3" height="42.08" x="240.4" y="281" fill="#4dd0e1" rx="21" ry="21" transform="rotate(90 339 302)"/><rect width="166.6" height="42.08" x="196.3" y="385.8" fill="#4dd0e1" rx="21" ry="21" transform="rotate(-24 280.03 407.167)"/><path fill="#009faf" d="M365.7 405.7l198.2.9-39.3 236.8-115.6-1.1-43.3-236.6z"/><path fill="none" stroke="#009faf" stroke-miterlimit="10" stroke-width="40" d="M545.9 429.2c-3.5.4 95.5-24.2 70.1 76.2-5.5 21.7-20.6 44.5-95.2 69.9"/><path fill="none" stroke="#009faf" stroke-linecap="round" stroke-linejoin="bevel" stroke-width="17.39" d="M432.2 285.8c-5.6 27.6-16.3 28 .9 46.7 21.5 23.4.9 44.5.9 44.5m53.8-77.4c-5.5 27.6-16.3 28 1 46.7 21.5 23.4.8 44.5.8 44.5"/></svg>