<svg xmlns="http://www.w3.org/2000/svg" width="722.8" height="722.8" viewBox="0 0 722.8 722.8"><title>calendar</title><g id="calendar"><path d="M544.7,154.8l-1.4-58.5-78.2.5v58.7H259.8l-.7-56.7-83-.6.9,57.9L85,159l1.1,488.2,546.4,1.3-.3-490.1Zm37.2,433.5-435,.6-2.6-299,436.3.6Z" fill="#009faf"/><path d="M255.8,427.1l-10.5,11.2a16.9,16.9,0,0,0,.4,23.7l72.2,71.8a17,17,0,0,0,23.9.1l152-150.1a17,17,0,0,0-1.1-25.1l-10.2-8.5a17,17,0,0,0-22.7.8L343.5,464a16.9,16.9,0,0,1-23.4.2l-40.3-37.8A17,17,0,0,0,255.8,427.1Z" fill="#009faf"/></g></svg>