<svg xmlns="http://www.w3.org/2000/svg"><symbol id="focuslogo" viewBox="0 0 722.8 722.8"><path fill="#fff" d="M96.65 300.54l179.48-2.13-137.56 222.7S61.44 418.62 96.65 300.54zM169.93 548l87.86-156.5 128.58 231S259.05 638.06 169.93 548zm261.45 62.06l-96.14-151.58 262.58-1.16S551.15 576.8 431.38 610.06zm175.98-190.48l-179.42 5.07 133.59-227.29s78.8 101.21 45.83 222.22zm-75.22-248.07l-83.52 158.88L314.56 101s126.84-19.08 217.58 70.51zM276.16 112l95.2 152.16-263.31.58S155.46 145.55 276.16 112z"/></symbol></svg>