<svg xmlns="http://www.w3.org/2000/svg" width="722.8" height="722.8" viewBox="0 0 722.8 722.8"><title>work</title><g id="work"><path d="M339.5,352h41.2a12,12,0,0,1,12,12v31.1l237.5-38.9.7-107a16.5,16.5,0,0,0-16.4-16.7l-508.1-1.6A19.4,19.4,0,0,0,87,250.5l1.1,106.3,239.4,37.5V364A12,12,0,0,1,339.5,352Z" fill="#009faf"/><path d="M632.9,381.2,392.7,427v17.7a12,12,0,0,1-12,12H339.5a12,12,0,0,1-12-12V425.8l-239.7-45,3.3,165.3a27.4,27.4,0,0,0,27.3,26.8l489.5,1.3a25.7,25.7,0,0,0,25.8-25.8Z" fill="#009faf"/><rect x="244.8" y="168" width="242.9" height="96.2" rx="12" ry="12" fill="none" stroke="#009faf" stroke-miterlimit="10" stroke-width="30.04"/></g></svg>